<svg width="128" height="128" viewBox="0 0 128 128" fill="none" xmlns="http://www.w3.org/2000/svg">
<rect width="128" height="128" rx="64" fill="white"/>
<path d="M110.866 42.5876L100.416 34.5305C99.7055 34.0743 98.9334 33.7229 98.1232 33.487C97.3162 33.2257 96.4762 33.0804 95.6284 33.0556H65.55L69.0744 55.0694H95.6284C96.35 55.0694 97.252 54.9065 98.1188 54.638C98.9856 54.3694 99.8216 53.9996 100.411 53.5989L110.861 45.533C111.455 45.1324 111.75 44.5996 111.75 44.0625C111.75 43.5254 111.455 42.9926 110.866 42.5876V42.5876ZM61.15 24.25H56.75C56.1665 24.25 55.6069 24.4819 55.1944 24.8948C54.7818 25.3076 54.55 25.8675 54.55 26.4514V41.8611H39.8716C39.1412 41.8611 38.2436 42.024 37.3768 42.297C36.5056 42.5612 35.674 42.9266 35.0844 43.336L24.6344 51.3931C24.0404 51.7938 23.75 52.3309 23.75 52.8681C23.75 53.4008 24.0404 53.9335 24.6344 54.343L35.0844 62.4089C35.674 62.8095 36.5056 63.1794 37.3768 63.4435C38.2436 63.7121 39.1412 63.875 39.8716 63.875H54.55V101.299C54.55 101.882 54.7818 102.442 55.1944 102.855C55.6069 103.268 56.1665 103.5 56.75 103.5H61.15C61.7335 103.5 62.2931 103.268 62.7056 102.855C63.1182 102.442 63.35 101.882 63.35 101.299V26.4514C63.35 25.8675 63.1182 25.3076 62.7056 24.8948C62.2931 24.4819 61.7335 24.25 61.15 24.25V24.25Z" fill="black"/>
</svg>
